<svg id="Layer_1" data-name="Layer 1" xmlns="http://www.w3.org/2000/svg" viewBox="0 0 1388.89 939.04"><defs><style>.cls-1{fill:#1d1c1a;fill-rule:evenodd;}.cls-2{fill:#c59e2d;}</style></defs><title>logo-n</title><path class="cls-1" d="M738.64,765.34V642.51Q993.93,537,1251.78,430.39c-172-71.08-342.27-141.45-513-212.08V96.61c6.27.79,639.82,267,650,273.27v7.44c0,35.28-.22,70.59.08,105.87.07,6.64-2,9.78-8.23,12.35q-316.25,133-632.42,266.2C745.36,763,742.34,763.94,738.64,765.34Z"/><polygon class="cls-2" points="310.48 939.04 608.25 469.52 801.03 704.3 1063.76 0 751.93 469.52 559.23 227.79 310.48 939.04"/><path class="cls-1" d="M650.25,765.34V642.51Q395,537,137.18,430.39c172-71.08,342.27-141.45,512.92-212.08V96.61c-6.27.79-639.83,267-649.95,273.27v7.44C.15,412.6.3,447.91,0,483.19c-.07,6.64,2.12,9.78,8.23,12.35q316.25,133,632.42,266.2C643.6,763,646.63,763.94,650.25,765.34Z"/></svg>